<?xml version="1.0" encoding="UTF-8" standalone="no"?>
<!DOCTYPE svg PUBLIC "-//W3C//DTD SVG 1.1//EN"
 "http://www.w3.org/Graphics/SVG/1.1/DTD/svg11.dtd">
<!-- Generated by graphviz version 14.1.1 (20251213.1925)
 -->
<!-- Title: timeline Pages: 1 -->
<svg width="1752pt" height="656pt"
 viewBox="0.00 0.00 1752.00 656.00" xmlns="http://www.w3.org/2000/svg" xmlns:xlink="http://www.w3.org/1999/xlink">
<g id="graph0" class="graph" transform="scale(1 1) rotate(0) translate(4 652)">
<title>timeline</title>
<polygon fill="white" stroke="none" points="-4,4 -4,-652 1748.25,-652 1748.25,4 -4,4"/>
<g id="clust1" class="cluster">
<title>cluster_0</title>
<polygon fill="none" stroke="black" points="8,-370 8,-532 103.75,-532 103.75,-370 8,-370"/>
<text xml:space="preserve" text-anchor="middle" x="55.88" y="-514.7" font-family="Times,serif" font-size="14.00">January</text>
</g>
<g id="clust2" class="cluster">
<title>cluster_1</title>
<polygon fill="none" stroke="black" points="123.75,-250 123.75,-464 219.5,-464 219.5,-250 123.75,-250"/>
<text xml:space="preserve" text-anchor="middle" x="171.62" y="-446.7" font-family="Times,serif" font-size="14.00">February</text>
</g>
<g id="clust3" class="cluster">
<title>cluster_2</title>
<polygon fill="none" stroke="black" points="239.5,-101 239.5,-263 335.25,-263 335.25,-101 239.5,-101"/>
<text xml:space="preserve" text-anchor="middle" x="287.38" y="-245.7" font-family="Times,serif" font-size="14.00">March</text>
</g>
<g id="clust4" class="cluster">
<title>cluster_3</title>
<polygon fill="none" stroke="black" points="355.25,-133 355.25,-520 452.5,-520 452.5,-133 355.25,-133"/>
<text xml:space="preserve" text-anchor="middle" x="403.88" y="-502.7" font-family="Times,serif" font-size="14.00">April</text>
</g>
<g id="clust5" class="cluster">
<title>cluster_4</title>
<polygon fill="none" stroke="black" points="472.5,-426 472.5,-640 569.75,-640 569.75,-426 472.5,-426"/>
<text xml:space="preserve" text-anchor="middle" x="521.12" y="-622.7" font-family="Times,serif" font-size="14.00">May</text>
</g>
<g id="clust6" class="cluster">
<title>cluster_5</title>
<polygon fill="none" stroke="black" points="472.5,-26 472.5,-328 569.75,-328 569.75,-26 472.5,-26"/>
<text xml:space="preserve" text-anchor="middle" x="521.12" y="-310.7" font-family="Times,serif" font-size="14.00">June</text>
</g>
<g id="clust7" class="cluster">
<title>cluster_6</title>
<polygon fill="none" stroke="black" points="589.75,-80 589.75,-398 687,-398 687,-80 589.75,-80"/>
<text xml:space="preserve" text-anchor="middle" x="638.38" y="-380.7" font-family="Times,serif" font-size="14.00">July</text>
</g>
<g id="clust8" class="cluster">
<title>cluster_7</title>
<polygon fill="none" stroke="black" points="707,-185 707,-331 804.25,-331 804.25,-185 707,-185"/>
<text xml:space="preserve" text-anchor="middle" x="755.62" y="-313.7" font-family="Times,serif" font-size="14.00">August</text>
</g>
<g id="clust9" class="cluster">
<title>cluster_8</title>
<polygon fill="none" stroke="black" points="824.25,-240 824.25,-575 921.5,-575 921.5,-240 824.25,-240"/>
<text xml:space="preserve" text-anchor="middle" x="872.88" y="-557.7" font-family="Times,serif" font-size="14.00">September</text>
</g>
<g id="clust10" class="cluster">
<title>cluster_9</title>
<polygon fill="none" stroke="black" points="941.5,-95 941.5,-241 1038.75,-241 1038.75,-95 941.5,-95"/>
<text xml:space="preserve" text-anchor="middle" x="990.12" y="-223.7" font-family="Times,serif" font-size="14.00">October</text>
</g>
<g id="clust11" class="cluster">
<title>cluster_10</title>
<polygon fill="none" stroke="black" points="1058.75,-8 1058.75,-463 1156,-463 1156,-8 1058.75,-8"/>
<text xml:space="preserve" text-anchor="middle" x="1107.38" y="-445.7" font-family="Times,serif" font-size="14.00">November</text>
</g>
<g id="clust12" class="cluster">
<title>cluster_11</title>
<polygon fill="none" stroke="black" points="1176,-69 1176,-163 1273.25,-163 1273.25,-69 1176,-69"/>
<text xml:space="preserve" text-anchor="middle" x="1224.62" y="-145.7" font-family="Times,serif" font-size="14.00">December</text>
</g>
<g id="clust13" class="cluster">
<title>cluster_12</title>
<polygon fill="none" stroke="black" points="1293.25,-201 1293.25,-451 1390.5,-451 1390.5,-201 1293.25,-201"/>
<text xml:space="preserve" text-anchor="middle" x="1341.88" y="-433.7" font-family="Times,serif" font-size="14.00">January</text>
</g>
<g id="clust14" class="cluster">
<title>cluster_13</title>
<polygon fill="none" stroke="black" points="1410.5,-149 1410.5,-243 1507.75,-243 1507.75,-149 1410.5,-149"/>
<text xml:space="preserve" text-anchor="middle" x="1459.12" y="-225.7" font-family="Times,serif" font-size="14.00">February</text>
</g>
<g id="clust15" class="cluster">
<title>cluster_14</title>
<polygon fill="none" stroke="black" points="1527.75,-149 1527.75,-243 1622,-243 1622,-149 1527.75,-149"/>
<text xml:space="preserve" text-anchor="middle" x="1574.88" y="-225.7" font-family="Times,serif" font-size="14.00">May</text>
</g>
<g id="clust16" class="cluster">
<title>cluster_15</title>
<polygon fill="none" stroke="black" points="1642,-217 1642,-311 1736.25,-311 1736.25,-217 1642,-217"/>
<text xml:space="preserve" text-anchor="middle" x="1689.12" y="-293.7" font-family="Times,serif" font-size="14.00">June</text>
</g>
<!-- order_node_0 -->
<!-- order_node_1 -->
<!-- order_node_0&#45;&gt;order_node_1 -->
<!-- node_0 -->
<g id="node2" class="node class1">
<title>node_0</title>
<g id="a_node2"><a xlink:href="http://www.ijcai.org/" xlink:title="International Joint Conference on Artificial Intelligence" target="_blank">
<polygon fill="#ff8888" stroke="black" points="95.75,-499.75 16,-499.75 16,-442.25 95.75,-442.25 95.75,-499.75"/>
<text xml:space="preserve" text-anchor="middle" x="55.88" y="-482.45" font-family="Times,serif" font-size="14.00">IJCAI</text>
<text xml:space="preserve" text-anchor="middle" x="55.88" y="-465.95" font-family="Times,serif" font-size="14.00">Abstracts</text>
<text xml:space="preserve" text-anchor="middle" x="55.88" y="-449.45" font-family="Times,serif" font-size="14.00">Submission</text>
</a>
</g>
</g>
<!-- node_7 -->
<g id="node12" class="node class1">
<title>node_7</title>
<g id="a_node12"><a xlink:href="http://www.ijcai.org/" xlink:title="International Joint Conference on Artificial Intelligence" target="_blank">
<polygon fill="#ff8888" stroke="black" points="444.5,-423.5 363.25,-423.5 363.25,-382.5 444.5,-382.5 444.5,-423.5"/>
<text xml:space="preserve" text-anchor="middle" x="403.88" y="-406.2" font-family="Times,serif" font-size="14.00">IJCAI</text>
<text xml:space="preserve" text-anchor="middle" x="403.88" y="-389.7" font-family="Times,serif" font-size="14.00">Notification</text>
</a>
</g>
</g>
<!-- node_0&#45;&gt;node_7 -->
<g id="edge16" class="edge">
<title>node_0&#45;&gt;node_7</title>
<path fill="none" stroke="black" d="M95.99,-473.06C129.15,-474.03 177.82,-473.62 219.5,-466 265.91,-457.51 316.47,-439.44 352.73,-424.81"/>
<polygon fill="black" stroke="black" points="353.7,-428.2 361.63,-421.17 351.04,-421.72 353.7,-428.2"/>
</g>
<!-- node_1 -->
<g id="node3" class="node class3">
<title>node_1</title>
<g id="a_node3"><a xlink:href="https://icml.cc" xlink:title="Conference on Neural Information Processing Systems" target="_blank">
<polygon fill="#8888ff" stroke="black" points="89.38,-431.5 22.38,-431.5 22.38,-390.5 89.38,-390.5 89.38,-431.5"/>
<text xml:space="preserve" text-anchor="middle" x="55.88" y="-414.2" font-family="Times,serif" font-size="14.00">ICML</text>
<text xml:space="preserve" text-anchor="middle" x="55.88" y="-397.7" font-family="Times,serif" font-size="14.00">Abstracts</text>
</a>
</g>
</g>
<!-- node_2 -->
<g id="node5" class="node class3">
<title>node_2</title>
<g id="a_node5"><a xlink:href="https://icml.cc" xlink:title="Conference on Neural Information Processing Systems" target="_blank">
<polygon fill="#8888ff" stroke="black" points="211.5,-431.5 131.75,-431.5 131.75,-390.5 211.5,-390.5 211.5,-431.5"/>
<text xml:space="preserve" text-anchor="middle" x="171.62" y="-414.2" font-family="Times,serif" font-size="14.00">ICML</text>
<text xml:space="preserve" text-anchor="middle" x="171.62" y="-397.7" font-family="Times,serif" font-size="14.00">Submission</text>
</a>
</g>
</g>
<!-- node_1&#45;&gt;node_2 -->
<g id="edge18" class="edge">
<title>node_1&#45;&gt;node_2</title>
<path fill="none" stroke="black" d="M89.78,-411C99.22,-411 109.73,-411 119.98,-411"/>
<polygon fill="black" stroke="black" points="119.84,-414.5 129.84,-411 119.84,-407.5 119.84,-414.5"/>
</g>
<!-- order_node_2 -->
<!-- order_node_1&#45;&gt;order_node_2 -->
<!-- node_14 -->
<g id="node20" class="node class3">
<title>node_14</title>
<g id="a_node20"><a xlink:href="https://icml.cc" xlink:title="Conference on Neural Information Processing Systems" target="_blank">
<polygon fill="#8888ff" stroke="black" points="561.75,-539.5 480.5,-539.5 480.5,-498.5 561.75,-498.5 561.75,-539.5"/>
<text xml:space="preserve" text-anchor="middle" x="521.12" y="-522.2" font-family="Times,serif" font-size="14.00">ICML</text>
<text xml:space="preserve" text-anchor="middle" x="521.12" y="-505.7" font-family="Times,serif" font-size="14.00">Notification</text>
</a>
</g>
</g>
<!-- node_2&#45;&gt;node_14 -->
<g id="edge19" class="edge">
<title>node_2&#45;&gt;node_14</title>
<path fill="none" stroke="black" d="M196.84,-431.82C229.99,-458.79 292.55,-504.44 355.25,-522 392.24,-532.36 435.75,-531.04 468.78,-527.43"/>
<polygon fill="black" stroke="black" points="468.99,-530.93 478.5,-526.26 468.15,-523.98 468.99,-530.93"/>
</g>
<!-- node_3 -->
<g id="node6" class="node class4">
<title>node_3</title>
<g id="a_node6"><a xlink:href="http://auai.org/uai2017/index.php" xlink:title="Conference on Uncertainty in Artificial Intelligence" target="_blank">
<polygon fill="#ff88d1" stroke="black" points="211.5,-299.5 131.75,-299.5 131.75,-258.5 211.5,-258.5 211.5,-299.5"/>
<text xml:space="preserve" text-anchor="middle" x="171.62" y="-282.2" font-family="Times,serif" font-size="14.00">UAI</text>
<text xml:space="preserve" text-anchor="middle" x="171.62" y="-265.7" font-family="Times,serif" font-size="14.00">Submission</text>
</a>
</g>
</g>
<!-- node_17 -->
<g id="node24" class="node class4">
<title>node_17</title>
<g id="a_node24"><a xlink:href="http://auai.org/uai2017/index.php" xlink:title="Conference on Uncertainty in Artificial Intelligence" target="_blank">
<polygon fill="#ff88d1" stroke="black" points="561.75,-87.5 480.5,-87.5 480.5,-46.5 561.75,-46.5 561.75,-87.5"/>
<text xml:space="preserve" text-anchor="middle" x="521.12" y="-70.2" font-family="Times,serif" font-size="14.00">UAI</text>
<text xml:space="preserve" text-anchor="middle" x="521.12" y="-53.7" font-family="Times,serif" font-size="14.00">Notification</text>
</a>
</g>
</g>
<!-- node_3&#45;&gt;node_17 -->
<g id="edge21" class="edge">
<title>node_3&#45;&gt;node_17</title>
<path fill="none" stroke="black" d="M173.63,-258.27C176.68,-219.98 189.1,-138.46 239.5,-99 305.33,-47.45 407.96,-50.38 469.17,-58.08"/>
<polygon fill="black" stroke="black" points="468.58,-61.53 478.96,-59.41 469.53,-54.59 468.58,-61.53"/>
</g>
<!-- node_4 -->
<g id="node7" class="node class2">
<title>node_4</title>
<g id="a_node7"><a xlink:href="http://www.kr.org/" xlink:title="International Conference on Principles of Knowledge Representation and Reasoning" target="_blank">
<polygon fill="#88ff88" stroke="black" points="211.5,-379.75 131.75,-379.75 131.75,-322.25 211.5,-322.25 211.5,-379.75"/>
<text xml:space="preserve" text-anchor="middle" x="171.62" y="-362.45" font-family="Times,serif" font-size="14.00">KR</text>
<text xml:space="preserve" text-anchor="middle" x="171.62" y="-345.95" font-family="Times,serif" font-size="14.00">Abstracts</text>
<text xml:space="preserve" text-anchor="middle" x="171.62" y="-329.45" font-family="Times,serif" font-size="14.00">Submission</text>
</a>
</g>
</g>
<!-- node_12 -->
<g id="node17" class="node class2">
<title>node_12</title>
<g id="a_node17"><a xlink:href="http://www.kr.org/" xlink:title="International Conference on Principles of Knowledge Representation and Reasoning" target="_blank">
<polygon fill="#88ff88" stroke="black" points="444.5,-371.5 363.25,-371.5 363.25,-330.5 444.5,-330.5 444.5,-371.5"/>
<text xml:space="preserve" text-anchor="middle" x="403.88" y="-354.2" font-family="Times,serif" font-size="14.00">KR</text>
<text xml:space="preserve" text-anchor="middle" x="403.88" y="-337.7" font-family="Times,serif" font-size="14.00">Notification</text>
</a>
</g>
</g>
<!-- node_4&#45;&gt;node_12 -->
<g id="edge22" class="edge">
<title>node_4&#45;&gt;node_12</title>
<path fill="none" stroke="black" d="M211.94,-351C250.45,-351 309.33,-351 351.52,-351"/>
<polygon fill="black" stroke="black" points="351.43,-354.5 361.43,-351 351.43,-347.5 351.43,-354.5"/>
</g>
<!-- order_node_3 -->
<!-- order_node_2&#45;&gt;order_node_3 -->
<!-- node_5 -->
<g id="node9" class="node class4">
<title>node_5</title>
<g id="a_node9"><a xlink:href="http://www.iros.org/" xlink:title="International Conference on Intelligent Robots and Systems" target="_blank">
<polygon fill="#ff88d1" stroke="black" points="327.25,-218.5 247.5,-218.5 247.5,-177.5 327.25,-177.5 327.25,-218.5"/>
<text xml:space="preserve" text-anchor="middle" x="287.38" y="-201.2" font-family="Times,serif" font-size="14.00">IROS</text>
<text xml:space="preserve" text-anchor="middle" x="287.38" y="-184.7" font-family="Times,serif" font-size="14.00">Submission</text>
</a>
</g>
</g>
<!-- node_18 -->
<g id="node25" class="node class4">
<title>node_18</title>
<g id="a_node25"><a xlink:href="http://www.iros.org/" xlink:title="International Conference on Intelligent Robots and Systems" target="_blank">
<polygon fill="#ff88d1" stroke="black" points="561.75,-139.5 480.5,-139.5 480.5,-98.5 561.75,-98.5 561.75,-139.5"/>
<text xml:space="preserve" text-anchor="middle" x="521.12" y="-122.2" font-family="Times,serif" font-size="14.00">IROS</text>
<text xml:space="preserve" text-anchor="middle" x="521.12" y="-105.7" font-family="Times,serif" font-size="14.00">Notification</text>
</a>
</g>
</g>
<!-- node_5&#45;&gt;node_18 -->
<g id="edge24" class="edge">
<title>node_5&#45;&gt;node_18</title>
<path fill="none" stroke="black" d="M327.62,-178.78C330.36,-176.69 332.94,-174.43 335.25,-172 349.2,-157.29 338.46,-142.36 355.25,-131 388.25,-108.68 433.93,-107.03 468.85,-110.21"/>
<polygon fill="black" stroke="black" points="468.42,-113.68 478.74,-111.28 469.17,-106.72 468.42,-113.68"/>
</g>
<!-- node_6 -->
<g id="node10" class="node class3">
<title>node_6</title>
<g id="a_node10"><a xlink:href="https://www.thecvf.com" xlink:title="International Conference on Computer Vision" target="_blank">
<polygon fill="#8888ff" stroke="black" points="327.25,-166.75 247.5,-166.75 247.5,-109.25 327.25,-109.25 327.25,-166.75"/>
<text xml:space="preserve" text-anchor="middle" x="287.38" y="-149.45" font-family="Times,serif" font-size="14.00">ICCV</text>
<text xml:space="preserve" text-anchor="middle" x="287.38" y="-132.95" font-family="Times,serif" font-size="14.00">Abstracts</text>
<text xml:space="preserve" text-anchor="middle" x="287.38" y="-116.45" font-family="Times,serif" font-size="14.00">Submission</text>
</a>
</g>
</g>
<!-- node_22 -->
<g id="node30" class="node class3">
<title>node_22</title>
<g id="a_node30"><a xlink:href="https://www.thecvf.com" xlink:title="International Conference on Computer Vision" target="_blank">
<polygon fill="#8888ff" stroke="black" points="679,-129.5 597.75,-129.5 597.75,-88.5 679,-88.5 679,-129.5"/>
<text xml:space="preserve" text-anchor="middle" x="638.38" y="-112.2" font-family="Times,serif" font-size="14.00">ICCV</text>
<text xml:space="preserve" text-anchor="middle" x="638.38" y="-95.7" font-family="Times,serif" font-size="14.00">Notification</text>
</a>
</g>
</g>
<!-- node_6&#45;&gt;node_22 -->
<g id="edge25" class="edge">
<title>node_6&#45;&gt;node_22</title>
<path fill="none" stroke="black" d="M322.22,-108.87C357.18,-80.88 414.64,-40.46 472.5,-24 514.07,-12.17 530.82,-5.22 569.75,-24 592.93,-35.18 610.61,-58.6 622.07,-78.02"/>
<polygon fill="black" stroke="black" points="618.98,-79.67 626.91,-86.7 625.1,-76.26 618.98,-79.67"/>
</g>
<!-- order_node_4 -->
<!-- order_node_3&#45;&gt;order_node_4 -->
<!-- node_27 -->
<g id="node36" class="node class1">
<title>node_27</title>
<g id="a_node36"><a xlink:href="http://www.ijcai.org/" xlink:title="International Joint Conference on Artificial Intelligence" target="_blank">
<polygon fill="#ff8888" stroke="black" points="794.75,-298.5 716.5,-298.5 716.5,-257.5 794.75,-257.5 794.75,-298.5"/>
<text xml:space="preserve" text-anchor="middle" x="755.62" y="-281.2" font-family="Times,serif" font-size="14.00">IJCAI</text>
<text xml:space="preserve" text-anchor="middle" x="755.62" y="-264.7" font-family="Times,serif" font-size="14.00">Conference</text>
</a>
</g>
</g>
<!-- node_7&#45;&gt;node_27 -->
<g id="edge17" class="edge">
<title>node_7&#45;&gt;node_27</title>
<path fill="none" stroke="black" d="M444.83,-407.39C512.77,-414.07 647.29,-423.67 687,-400 719.69,-380.51 737.72,-338.98 746.78,-309.81"/>
<polygon fill="black" stroke="black" points="750.09,-310.96 749.51,-300.38 743.37,-309.02 750.09,-310.96"/>
</g>
<!-- node_8 -->
<g id="node13" class="node class1">
<title>node_8</title>
<g id="a_node13"><a xlink:href="http://www.ecai2016.org/" xlink:title="European Conference on Artificial Intelligence" target="_blank">
<polygon fill="#ff8888" stroke="black" points="443.75,-182.5 364,-182.5 364,-141.5 443.75,-141.5 443.75,-182.5"/>
<text xml:space="preserve" text-anchor="middle" x="403.88" y="-165.2" font-family="Times,serif" font-size="14.00">ECAI</text>
<text xml:space="preserve" text-anchor="middle" x="403.88" y="-148.7" font-family="Times,serif" font-size="14.00">Submission</text>
</a>
</g>
</g>
<!-- node_16 -->
<g id="node23" class="node class1">
<title>node_16</title>
<g id="a_node23"><a xlink:href="http://www.ecai2016.org/" xlink:title="European Conference on Artificial Intelligence" target="_blank">
<polygon fill="#ff8888" stroke="black" points="561.75,-191.5 480.5,-191.5 480.5,-150.5 561.75,-150.5 561.75,-191.5"/>
<text xml:space="preserve" text-anchor="middle" x="521.12" y="-174.2" font-family="Times,serif" font-size="14.00">ECAI</text>
<text xml:space="preserve" text-anchor="middle" x="521.12" y="-157.7" font-family="Times,serif" font-size="14.00">Notification</text>
</a>
</g>
</g>
<!-- node_8&#45;&gt;node_16 -->
<g id="edge26" class="edge">
<title>node_8&#45;&gt;node_16</title>
<path fill="none" stroke="black" d="M444.22,-165.07C452.1,-165.69 460.5,-166.34 468.73,-166.99"/>
<polygon fill="black" stroke="black" points="468.43,-170.47 478.67,-167.76 468.97,-163.49 468.43,-170.47"/>
</g>
<!-- node_9 -->
<g id="node14" class="node class2">
<title>node_9</title>
<g id="a_node14"><a xlink:href="http://wibih.unomaha.edu/wi" xlink:title="International Conference on Intelligent Agent Technology" target="_blank">
<polygon fill="#88ff88" stroke="black" points="443.75,-475.5 364,-475.5 364,-434.5 443.75,-434.5 443.75,-475.5"/>
<text xml:space="preserve" text-anchor="middle" x="403.88" y="-458.2" font-family="Times,serif" font-size="14.00">IAT</text>
<text xml:space="preserve" text-anchor="middle" x="403.88" y="-441.7" font-family="Times,serif" font-size="14.00">Submission</text>
</a>
</g>
</g>
<!-- node_15 -->
<g id="node21" class="node class2">
<title>node_15</title>
<g id="a_node21"><a xlink:href="http://wibih.unomaha.edu/wi" xlink:title="International Conference on Intelligent Agent Technology" target="_blank">
<polygon fill="#88ff88" stroke="black" points="561.75,-475.5 480.5,-475.5 480.5,-434.5 561.75,-434.5 561.75,-475.5"/>
<text xml:space="preserve" text-anchor="middle" x="521.12" y="-458.2" font-family="Times,serif" font-size="14.00">IAT</text>
<text xml:space="preserve" text-anchor="middle" x="521.12" y="-441.7" font-family="Times,serif" font-size="14.00">Notification</text>
</a>
</g>
</g>
<!-- node_9&#45;&gt;node_15 -->
<g id="edge27" class="edge">
<title>node_9&#45;&gt;node_15</title>
<path fill="none" stroke="black" d="M444.22,-455C452.1,-455 460.5,-455 468.73,-455"/>
<polygon fill="black" stroke="black" points="468.67,-458.5 478.67,-455 468.67,-451.5 468.67,-458.5"/>
</g>
<!-- node_10 -->
<g id="node15" class="node class2">
<title>node_10</title>
<g id="a_node15"><a xlink:href="http://software.imdea.org/Conferences/ICLP2016/" xlink:title="International Conference on Logic Programming" target="_blank">
<polygon fill="#88ff88" stroke="black" points="443.75,-250.75 364,-250.75 364,-193.25 443.75,-193.25 443.75,-250.75"/>
<text xml:space="preserve" text-anchor="middle" x="403.88" y="-233.45" font-family="Times,serif" font-size="14.00">ICLP</text>
<text xml:space="preserve" text-anchor="middle" x="403.88" y="-216.95" font-family="Times,serif" font-size="14.00">Abstracts</text>
<text xml:space="preserve" text-anchor="middle" x="403.88" y="-200.45" font-family="Times,serif" font-size="14.00">Submission</text>
</a>
</g>
</g>
<!-- node_19 -->
<g id="node26" class="node class2">
<title>node_19</title>
<g id="a_node26"><a xlink:href="http://software.imdea.org/Conferences/ICLP2016/" xlink:title="International Conference on Logic Programming" target="_blank">
<polygon fill="#88ff88" stroke="black" points="561.75,-243.5 480.5,-243.5 480.5,-202.5 561.75,-202.5 561.75,-243.5"/>
<text xml:space="preserve" text-anchor="middle" x="521.12" y="-226.2" font-family="Times,serif" font-size="14.00">ICLP</text>
<text xml:space="preserve" text-anchor="middle" x="521.12" y="-209.7" font-family="Times,serif" font-size="14.00">Notification</text>
</a>
</g>
</g>
<!-- node_10&#45;&gt;node_19 -->
<g id="edge28" class="edge">
<title>node_10&#45;&gt;node_19</title>
<path fill="none" stroke="black" d="M444.22,-222.34C452.1,-222.41 460.5,-222.48 468.73,-222.55"/>
<polygon fill="black" stroke="black" points="468.64,-226.05 478.67,-222.64 468.7,-219.05 468.64,-226.05"/>
</g>
<!-- node_11 -->
<g id="node16" class="node class3">
<title>node_11</title>
<g id="a_node16"><a xlink:href="https://bmvc2020-conference.com" xlink:title="British Machine Vision Conference" target="_blank">
<polygon fill="#8888ff" stroke="black" points="443.75,-319.75 364,-319.75 364,-262.25 443.75,-262.25 443.75,-319.75"/>
<text xml:space="preserve" text-anchor="middle" x="403.88" y="-302.45" font-family="Times,serif" font-size="14.00">BMVC</text>
<text xml:space="preserve" text-anchor="middle" x="403.88" y="-285.95" font-family="Times,serif" font-size="14.00">Abstracts</text>
<text xml:space="preserve" text-anchor="middle" x="403.88" y="-269.45" font-family="Times,serif" font-size="14.00">Submission</text>
</a>
</g>
</g>
<!-- node_23 -->
<g id="node31" class="node class3">
<title>node_23</title>
<g id="a_node31"><a xlink:href="https://bmvc2020-conference.com" xlink:title="British Machine Vision Conference" target="_blank">
<polygon fill="#8888ff" stroke="black" points="679,-261.5 597.75,-261.5 597.75,-220.5 679,-220.5 679,-261.5"/>
<text xml:space="preserve" text-anchor="middle" x="638.38" y="-244.2" font-family="Times,serif" font-size="14.00">BMVC</text>
<text xml:space="preserve" text-anchor="middle" x="638.38" y="-227.7" font-family="Times,serif" font-size="14.00">Notification</text>
</a>
</g>
</g>
<!-- node_11&#45;&gt;node_23 -->
<g id="edge29" class="edge">
<title>node_11&#45;&gt;node_23</title>
<path fill="none" stroke="black" d="M444.09,-316.8C479.94,-336.82 532.84,-357.01 569.75,-330 591.05,-314.41 575.14,-294.28 590.89,-268.43"/>
<polygon fill="black" stroke="black" points="593.5,-270.78 596.64,-260.66 587.88,-266.61 593.5,-270.78"/>
</g>
<!-- node_25 -->
<g id="node33" class="node class2">
<title>node_25</title>
<g id="a_node33"><a xlink:href="http://www.kr.org/" xlink:title="International Conference on Principles of Knowledge Representation and Reasoning" target="_blank">
<polygon fill="#88ff88" stroke="black" points="677.5,-313.5 599.25,-313.5 599.25,-272.5 677.5,-272.5 677.5,-313.5"/>
<text xml:space="preserve" text-anchor="middle" x="638.38" y="-296.2" font-family="Times,serif" font-size="14.00">KR</text>
<text xml:space="preserve" text-anchor="middle" x="638.38" y="-279.7" font-family="Times,serif" font-size="14.00">Conference</text>
</a>
</g>
</g>
<!-- node_12&#45;&gt;node_25 -->
<g id="edge23" class="edge">
<title>node_12&#45;&gt;node_25</title>
<path fill="none" stroke="black" d="M444.89,-358.66C479.84,-363.31 530.92,-365.01 569.75,-345 582.71,-338.32 578.67,-328.47 589.75,-319 589.84,-318.92 589.93,-318.85 590.02,-318.77"/>
<polygon fill="black" stroke="black" points="591.86,-321.76 597.78,-312.97 587.67,-316.15 591.86,-321.76"/>
</g>
<!-- order_node_5 -->
<!-- order_node_4&#45;&gt;order_node_5 -->
<!-- node_13 -->
<g id="node19" class="node class3">
<title>node_13</title>
<g id="a_node19"><a xlink:href="https://neurips.cc" xlink:title="Conference on Neural Information Processing Systems" target="_blank">
<polygon fill="#8888ff" stroke="black" points="561,-607.75 481.25,-607.75 481.25,-550.25 561,-550.25 561,-607.75"/>
<text xml:space="preserve" text-anchor="middle" x="521.12" y="-590.45" font-family="Times,serif" font-size="14.00">NeurIPS</text>
<text xml:space="preserve" text-anchor="middle" x="521.12" y="-573.95" font-family="Times,serif" font-size="14.00">Abstracts</text>
<text xml:space="preserve" text-anchor="middle" x="521.12" y="-557.45" font-family="Times,serif" font-size="14.00">Submission</text>
</a>
</g>
</g>
<!-- node_32 -->
<g id="node42" class="node class3">
<title>node_32</title>
<g id="a_node42"><a xlink:href="https://neurips.cc" xlink:title="Conference on Neural Information Processing Systems" target="_blank">
<polygon fill="#8888ff" stroke="black" points="913.5,-542.5 832.25,-542.5 832.25,-501.5 913.5,-501.5 913.5,-542.5"/>
<text xml:space="preserve" text-anchor="middle" x="872.88" y="-525.2" font-family="Times,serif" font-size="14.00">NeurIPS</text>
<text xml:space="preserve" text-anchor="middle" x="872.88" y="-508.7" font-family="Times,serif" font-size="14.00">Notification</text>
</a>
</g>
</g>
<!-- node_13&#45;&gt;node_32 -->
<g id="edge30" class="edge">
<title>node_13&#45;&gt;node_32</title>
<path fill="none" stroke="black" d="M561.23,-572.63C624.72,-562.28 750.2,-541.83 820.71,-530.34"/>
<polygon fill="black" stroke="black" points="821.15,-533.81 830.46,-528.75 820.02,-526.9 821.15,-533.81"/>
</g>
<!-- node_24 -->
<g id="node32" class="node class3">
<title>node_24</title>
<g id="a_node32"><a xlink:href="https://icml.cc" xlink:title="Conference on Neural Information Processing Systems" target="_blank">
<polygon fill="#8888ff" stroke="black" points="677.5,-365.5 599.25,-365.5 599.25,-324.5 677.5,-324.5 677.5,-365.5"/>
<text xml:space="preserve" text-anchor="middle" x="638.38" y="-348.2" font-family="Times,serif" font-size="14.00">ICML</text>
<text xml:space="preserve" text-anchor="middle" x="638.38" y="-331.7" font-family="Times,serif" font-size="14.00">Conference</text>
</a>
</g>
</g>
<!-- node_14&#45;&gt;node_24 -->
<g id="edge20" class="edge">
<title>node_14&#45;&gt;node_24</title>
<path fill="none" stroke="black" d="M562.07,-499.9C564.84,-497.78 567.44,-495.48 569.75,-493 601.01,-459.44 619.82,-408.92 629.4,-376.45"/>
<polygon fill="black" stroke="black" points="632.65,-377.81 631.99,-367.23 625.91,-375.91 632.65,-377.81"/>
</g>
<!-- order_node_6 -->
<!-- order_node_5&#45;&gt;order_node_6 -->
<!-- node_20 -->
<g id="node27" class="node class4">
<title>node_20</title>
<g id="a_node27"><a xlink:href="http://aiide.org" xlink:title="AIIDE\nSubmission" target="_blank">
<polygon fill="#ff88d1" stroke="black" points="561,-295.5 481.25,-295.5 481.25,-254.5 561,-254.5 561,-295.5"/>
<text xml:space="preserve" text-anchor="middle" x="521.12" y="-278.2" font-family="Times,serif" font-size="14.00">AIIDE</text>
<text xml:space="preserve" text-anchor="middle" x="521.12" y="-261.7" font-family="Times,serif" font-size="14.00">Submission</text>
</a>
</g>
</g>
<!-- order_node_7 -->
<!-- order_node_6&#45;&gt;order_node_7 -->
<!-- node_21 -->
<g id="node29" class="node class4">
<title>node_21</title>
<g id="a_node29"><a xlink:href="http://sbgames.org/" xlink:title="Simposio Brasileiro de Games e Entretenimento Digital" target="_blank">
<polygon fill="#ff88d1" stroke="black" points="678.25,-197.75 598.5,-197.75 598.5,-140.25 678.25,-140.25 678.25,-197.75"/>
<text xml:space="preserve" text-anchor="middle" x="638.38" y="-180.45" font-family="Times,serif" font-size="14.00">SBGames</text>
<text xml:space="preserve" text-anchor="middle" x="638.38" y="-163.95" font-family="Times,serif" font-size="14.00">Abstracts</text>
<text xml:space="preserve" text-anchor="middle" x="638.38" y="-147.45" font-family="Times,serif" font-size="14.00">Submission</text>
</a>
</g>
</g>
<!-- node_26 -->
<g id="node35" class="node class4">
<title>node_26</title>
<g id="a_node35"><a xlink:href="http://sbgames.org/" xlink:title="Simposio Brasileiro de Games e Entretenimento Digital" target="_blank">
<polygon fill="#ff88d1" stroke="black" points="796.25,-234.5 715,-234.5 715,-193.5 796.25,-193.5 796.25,-234.5"/>
<text xml:space="preserve" text-anchor="middle" x="755.62" y="-217.2" font-family="Times,serif" font-size="14.00">SBGames</text>
<text xml:space="preserve" text-anchor="middle" x="755.62" y="-200.7" font-family="Times,serif" font-size="14.00">Notification</text>
</a>
</g>
</g>
<!-- node_21&#45;&gt;node_26 -->
<g id="edge31" class="edge">
<title>node_21&#45;&gt;node_26</title>
<path fill="none" stroke="black" d="M678.72,-184.36C686.88,-187.55 695.58,-190.95 704.08,-194.27"/>
<polygon fill="black" stroke="black" points="702.68,-197.48 713.27,-197.85 705.23,-190.95 702.68,-197.48"/>
</g>
<!-- order_node_8 -->
<!-- order_node_7&#45;&gt;order_node_8 -->
<!-- order_node_9 -->
<!-- order_node_8&#45;&gt;order_node_9 -->
<!-- node_28 -->
<g id="node38" class="node class4">
<title>node_28</title>
<g id="a_node38"><a xlink:href="http://www.icra2017.org/" xlink:title="International Conference on Robotics and Automation" target="_blank">
<polygon fill="#ff88d1" stroke="black" points="912.75,-490.5 833,-490.5 833,-449.5 912.75,-449.5 912.75,-490.5"/>
<text xml:space="preserve" text-anchor="middle" x="872.88" y="-473.2" font-family="Times,serif" font-size="14.00">ICRA</text>
<text xml:space="preserve" text-anchor="middle" x="872.88" y="-456.7" font-family="Times,serif" font-size="14.00">Submission</text>
</a>
</g>
</g>
<!-- node_43 -->
<g id="node57" class="node class4">
<title>node_43</title>
<g id="a_node57"><a xlink:href="http://www.icra2017.org/" xlink:title="International Conference on Robotics and Automation" target="_blank">
<polygon fill="#ff88d1" stroke="black" points="1382.5,-418.5 1301.25,-418.5 1301.25,-377.5 1382.5,-377.5 1382.5,-418.5"/>
<text xml:space="preserve" text-anchor="middle" x="1341.88" y="-401.2" font-family="Times,serif" font-size="14.00">ICRA</text>
<text xml:space="preserve" text-anchor="middle" x="1341.88" y="-384.7" font-family="Times,serif" font-size="14.00">Notification</text>
</a>
</g>
</g>
<!-- node_28&#45;&gt;node_43 -->
<g id="edge32" class="edge">
<title>node_28&#45;&gt;node_43</title>
<path fill="none" stroke="black" d="M913.07,-473.33C967.93,-477.09 1070.49,-480.8 1156,-465 1203.05,-456.31 1254,-437.05 1290.48,-421.4"/>
<polygon fill="black" stroke="black" points="1291.68,-424.69 1299.45,-417.49 1288.88,-418.28 1291.68,-424.69"/>
</g>
<!-- node_29 -->
<g id="node39" class="node class4">
<title>node_29</title>
<g id="a_node39"><a xlink:href="http://www.sigapp.org/sac/" xlink:title="Symposium On Applied Computing" target="_blank">
<polygon fill="#ff88d1" stroke="black" points="912.75,-438.75 833,-438.75 833,-381.25 912.75,-381.25 912.75,-438.75"/>
<text xml:space="preserve" text-anchor="middle" x="872.88" y="-421.45" font-family="Times,serif" font-size="14.00">SAC</text>
<text xml:space="preserve" text-anchor="middle" x="872.88" y="-404.95" font-family="Times,serif" font-size="14.00">Abstracts</text>
<text xml:space="preserve" text-anchor="middle" x="872.88" y="-388.45" font-family="Times,serif" font-size="14.00">Submission</text>
</a>
</g>
</g>
<!-- node_36 -->
<g id="node48" class="node class4">
<title>node_36</title>
<g id="a_node48"><a xlink:href="http://www.sigapp.org/sac/" xlink:title="Symposium On Applied Computing" target="_blank">
<polygon fill="#ff88d1" stroke="black" points="1148,-430.5 1066.75,-430.5 1066.75,-389.5 1148,-389.5 1148,-430.5"/>
<text xml:space="preserve" text-anchor="middle" x="1107.38" y="-413.2" font-family="Times,serif" font-size="14.00">SAC</text>
<text xml:space="preserve" text-anchor="middle" x="1107.38" y="-396.7" font-family="Times,serif" font-size="14.00">Notification</text>
</a>
</g>
</g>
<!-- node_29&#45;&gt;node_36 -->
<g id="edge33" class="edge">
<title>node_29&#45;&gt;node_36</title>
<path fill="none" stroke="black" d="M913.05,-410C952.05,-410 1012.12,-410 1054.94,-410"/>
<polygon fill="black" stroke="black" points="1054.74,-413.5 1064.74,-410 1054.74,-406.5 1054.74,-413.5"/>
</g>
<!-- node_30 -->
<g id="node40" class="node class1">
<title>node_30</title>
<g id="a_node40"><a xlink:href="http://www.aaai.org/Conferences/conferences.php" xlink:title="Association for the Advancement of Artificial Intelligence" target="_blank">
<polygon fill="#ff8888" stroke="black" points="912.75,-369.75 833,-369.75 833,-312.25 912.75,-312.25 912.75,-369.75"/>
<text xml:space="preserve" text-anchor="middle" x="872.88" y="-352.45" font-family="Times,serif" font-size="14.00">AAAI</text>
<text xml:space="preserve" text-anchor="middle" x="872.88" y="-335.95" font-family="Times,serif" font-size="14.00">Abstracts</text>
<text xml:space="preserve" text-anchor="middle" x="872.88" y="-319.45" font-family="Times,serif" font-size="14.00">Submission</text>
</a>
</g>
</g>
<!-- node_35 -->
<g id="node47" class="node class1">
<title>node_35</title>
<g id="a_node47"><a xlink:href="http://www.aaai.org/Conferences/conferences.php" xlink:title="Association for the Advancement of Artificial Intelligence" target="_blank">
<polygon fill="#ff8888" stroke="black" points="1148,-378.5 1066.75,-378.5 1066.75,-337.5 1148,-337.5 1148,-378.5"/>
<text xml:space="preserve" text-anchor="middle" x="1107.38" y="-361.2" font-family="Times,serif" font-size="14.00">AAAI</text>
<text xml:space="preserve" text-anchor="middle" x="1107.38" y="-344.7" font-family="Times,serif" font-size="14.00">Notification</text>
</a>
</g>
</g>
<!-- node_30&#45;&gt;node_35 -->
<g id="edge34" class="edge">
<title>node_30&#45;&gt;node_35</title>
<path fill="none" stroke="black" d="M913.05,-343.86C952.05,-346.72 1012.12,-351.11 1054.94,-354.24"/>
<polygon fill="black" stroke="black" points="1054.52,-357.72 1064.75,-354.96 1055.03,-350.74 1054.52,-357.72"/>
</g>
<!-- node_31 -->
<g id="node41" class="node class2">
<title>node_31</title>
<g id="a_node41"><a xlink:href="http://eumas-at2016.webs.upv.es/EUMAS2016.html" xlink:title="European Conference on Multi&#45;Agent Systems" target="_blank">
<polygon fill="#88ff88" stroke="black" points="912.75,-289.5 833,-289.5 833,-248.5 912.75,-248.5 912.75,-289.5"/>
<text xml:space="preserve" text-anchor="middle" x="872.88" y="-272.2" font-family="Times,serif" font-size="14.00">EUMAS</text>
<text xml:space="preserve" text-anchor="middle" x="872.88" y="-255.7" font-family="Times,serif" font-size="14.00">Submission</text>
</a>
</g>
</g>
<!-- node_33 -->
<g id="node44" class="node class2">
<title>node_33</title>
<g id="a_node44"><a xlink:href="http://eumas-at2016.webs.upv.es/EUMAS2016.html" xlink:title="European Conference on Multi&#45;Agent Systems" target="_blank">
<polygon fill="#88ff88" stroke="black" points="1030.75,-144.5 949.5,-144.5 949.5,-103.5 1030.75,-103.5 1030.75,-144.5"/>
<text xml:space="preserve" text-anchor="middle" x="990.12" y="-127.2" font-family="Times,serif" font-size="14.00">EUMAS</text>
<text xml:space="preserve" text-anchor="middle" x="990.12" y="-110.7" font-family="Times,serif" font-size="14.00">Notification</text>
</a>
</g>
</g>
<!-- node_31&#45;&gt;node_33 -->
<g id="edge36" class="edge">
<title>node_31&#45;&gt;node_33</title>
<path fill="none" stroke="black" d="M881.53,-248.23C891.08,-224.43 909.37,-185.06 941.44,-151.33"/>
<polygon fill="black" stroke="black" points="943.76,-153.96 948.35,-144.41 938.81,-149.01 943.76,-153.96"/>
</g>
<!-- order_node_10 -->
<!-- order_node_9&#45;&gt;order_node_10 -->
<!-- node_34 -->
<g id="node45" class="node class2">
<title>node_34</title>
<g id="a_node45"><a xlink:href="http://www.icaart.org/" xlink:title="International Conference on Agents and Artificial Intelligence" target="_blank">
<polygon fill="#88ff88" stroke="black" points="1030,-208.5 950.25,-208.5 950.25,-167.5 1030,-167.5 1030,-208.5"/>
<text xml:space="preserve" text-anchor="middle" x="990.12" y="-191.2" font-family="Times,serif" font-size="14.00">ICAART</text>
<text xml:space="preserve" text-anchor="middle" x="990.12" y="-174.7" font-family="Times,serif" font-size="14.00">Submission</text>
</a>
</g>
</g>
<!-- node_40 -->
<g id="node52" class="node class2">
<title>node_40</title>
<g id="a_node52"><a xlink:href="http://www.icaart.org/" xlink:title="International Conference on Agents and Artificial Intelligence" target="_blank">
<polygon fill="#88ff88" stroke="black" points="1148,-69.5 1066.75,-69.5 1066.75,-28.5 1148,-28.5 1148,-69.5"/>
<text xml:space="preserve" text-anchor="middle" x="1107.38" y="-52.2" font-family="Times,serif" font-size="14.00">ICAART</text>
<text xml:space="preserve" text-anchor="middle" x="1107.38" y="-35.7" font-family="Times,serif" font-size="14.00">Notification</text>
</a>
</g>
</g>
<!-- node_34&#45;&gt;node_40 -->
<g id="edge37" class="edge">
<title>node_34&#45;&gt;node_40</title>
<path fill="none" stroke="black" d="M1030.32,-170.48C1033.47,-167.97 1036.36,-165.15 1038.75,-162 1060.75,-132.97 1039.02,-110.57 1059.68,-76.63"/>
<polygon fill="black" stroke="black" points="1062.52,-78.67 1065.42,-68.48 1056.8,-74.64 1062.52,-78.67"/>
</g>
<!-- order_node_11 -->
<!-- order_node_10&#45;&gt;order_node_11 -->
<!-- node_46 -->
<g id="node60" class="node class1">
<title>node_46</title>
<g id="a_node60"><a xlink:href="http://www.aaai.org/Conferences/conferences.php" xlink:title="Association for the Advancement of Artificial Intelligence" target="_blank">
<polygon fill="#ff8888" stroke="black" points="1381,-366.5 1302.75,-366.5 1302.75,-325.5 1381,-325.5 1381,-366.5"/>
<text xml:space="preserve" text-anchor="middle" x="1341.88" y="-349.2" font-family="Times,serif" font-size="14.00">AAAI</text>
<text xml:space="preserve" text-anchor="middle" x="1341.88" y="-332.7" font-family="Times,serif" font-size="14.00">Conference</text>
</a>
</g>
</g>
<!-- node_35&#45;&gt;node_46 -->
<g id="edge35" class="edge">
<title>node_35&#45;&gt;node_46</title>
<path fill="none" stroke="black" d="M1148.34,-355.94C1187.95,-353.89 1248.7,-350.76 1291.34,-348.56"/>
<polygon fill="black" stroke="black" points="1291.27,-352.07 1301.07,-348.05 1290.91,-345.07 1291.27,-352.07"/>
</g>
<!-- node_37 -->
<g id="node49" class="node class2">
<title>node_37</title>
<g id="a_node49"><a xlink:href="http://www.icaps-conference.org/" xlink:title="International Conference on Automated Planning and Scheduling" target="_blank">
<polygon fill="#88ff88" stroke="black" points="1147.25,-326.75 1067.5,-326.75 1067.5,-269.25 1147.25,-269.25 1147.25,-326.75"/>
<text xml:space="preserve" text-anchor="middle" x="1107.38" y="-309.45" font-family="Times,serif" font-size="14.00">ICAPS</text>
<text xml:space="preserve" text-anchor="middle" x="1107.38" y="-292.95" font-family="Times,serif" font-size="14.00">Abstracts</text>
<text xml:space="preserve" text-anchor="middle" x="1107.38" y="-276.45" font-family="Times,serif" font-size="14.00">Submission</text>
</a>
</g>
</g>
<!-- node_44 -->
<g id="node58" class="node class2">
<title>node_44</title>
<g id="a_node58"><a xlink:href="http://www.icaps-conference.org/" xlink:title="International Conference on Automated Planning and Scheduling" target="_blank">
<polygon fill="#88ff88" stroke="black" points="1382.5,-314.5 1301.25,-314.5 1301.25,-273.5 1382.5,-273.5 1382.5,-314.5"/>
<text xml:space="preserve" text-anchor="middle" x="1341.88" y="-297.2" font-family="Times,serif" font-size="14.00">ICAPS</text>
<text xml:space="preserve" text-anchor="middle" x="1341.88" y="-280.7" font-family="Times,serif" font-size="14.00">Notification</text>
</a>
</g>
</g>
<!-- node_37&#45;&gt;node_44 -->
<g id="edge38" class="edge">
<title>node_37&#45;&gt;node_44</title>
<path fill="none" stroke="black" d="M1147.55,-297.33C1186.55,-296.65 1246.62,-295.62 1289.44,-294.88"/>
<polygon fill="black" stroke="black" points="1289.3,-298.39 1299.24,-294.72 1289.18,-291.39 1289.3,-298.39"/>
</g>
<!-- node_38 -->
<g id="node50" class="node class2">
<title>node_38</title>
<g id="a_node50"><a xlink:href="http://www.ifaamas.org/" xlink:title="International Conference on Autonomous Agents and Multiagent Systems" target="_blank">
<polygon fill="#88ff88" stroke="black" points="1147.25,-137.75 1067.5,-137.75 1067.5,-80.25 1147.25,-80.25 1147.25,-137.75"/>
<text xml:space="preserve" text-anchor="middle" x="1107.38" y="-120.45" font-family="Times,serif" font-size="14.00">AAMAS</text>
<text xml:space="preserve" text-anchor="middle" x="1107.38" y="-103.95" font-family="Times,serif" font-size="14.00">Abstracts</text>
<text xml:space="preserve" text-anchor="middle" x="1107.38" y="-87.45" font-family="Times,serif" font-size="14.00">Submission</text>
</a>
</g>
</g>
<!-- node_42 -->
<g id="node55" class="node class2">
<title>node_42</title>
<g id="a_node55"><a xlink:href="http://www.ifaamas.org/" xlink:title="International Conference on Autonomous Agents and Multiagent Systems" target="_blank">
<polygon fill="#88ff88" stroke="black" points="1265.25,-130.5 1184,-130.5 1184,-89.5 1265.25,-89.5 1265.25,-130.5"/>
<text xml:space="preserve" text-anchor="middle" x="1224.62" y="-113.2" font-family="Times,serif" font-size="14.00">AAMAS</text>
<text xml:space="preserve" text-anchor="middle" x="1224.62" y="-96.7" font-family="Times,serif" font-size="14.00">Notification</text>
</a>
</g>
</g>
<!-- node_38&#45;&gt;node_42 -->
<g id="edge40" class="edge">
<title>node_38&#45;&gt;node_42</title>
<path fill="none" stroke="black" d="M1147.72,-109.34C1155.6,-109.41 1164,-109.48 1172.23,-109.55"/>
<polygon fill="black" stroke="black" points="1172.14,-113.05 1182.17,-109.64 1172.2,-106.05 1172.14,-113.05"/>
</g>
<!-- node_39 -->
<g id="node51" class="node class1">
<title>node_39</title>
<g id="a_node51"><a xlink:href="http://www.flairs.com/" xlink:title="Florida Artificial Intelligence Research Society" target="_blank">
<polygon fill="#ff8888" stroke="black" points="1147.25,-258.5 1067.5,-258.5 1067.5,-217.5 1147.25,-217.5 1147.25,-258.5"/>
<text xml:space="preserve" text-anchor="middle" x="1107.38" y="-241.2" font-family="Times,serif" font-size="14.00">FLAIRS</text>
<text xml:space="preserve" text-anchor="middle" x="1107.38" y="-224.7" font-family="Times,serif" font-size="14.00">Submission</text>
</a>
</g>
</g>
<!-- node_45 -->
<g id="node59" class="node class1">
<title>node_45</title>
<g id="a_node59"><a xlink:href="http://www.flairs.com/" xlink:title="Florida Artificial Intelligence Research Society" target="_blank">
<polygon fill="#ff8888" stroke="black" points="1382.5,-262.5 1301.25,-262.5 1301.25,-221.5 1382.5,-221.5 1382.5,-262.5"/>
<text xml:space="preserve" text-anchor="middle" x="1341.88" y="-245.2" font-family="Times,serif" font-size="14.00">FLAIRS</text>
<text xml:space="preserve" text-anchor="middle" x="1341.88" y="-228.7" font-family="Times,serif" font-size="14.00">Notification</text>
</a>
</g>
</g>
<!-- node_39&#45;&gt;node_45 -->
<g id="edge42" class="edge">
<title>node_39&#45;&gt;node_45</title>
<path fill="none" stroke="black" d="M1147.55,-238.67C1186.55,-239.35 1246.62,-240.38 1289.44,-241.12"/>
<polygon fill="black" stroke="black" points="1289.18,-244.61 1299.24,-241.28 1289.3,-237.61 1289.18,-244.61"/>
</g>
<!-- node_41 -->
<g id="node53" class="node class3">
<title>node_41</title>
<g id="a_node53"><a xlink:href="https://www.thecvf.com" xlink:title="Conference on Computer Vision and Pattern Recognition" target="_blank">
<polygon fill="#8888ff" stroke="black" points="1147.25,-206.75 1067.5,-206.75 1067.5,-149.25 1147.25,-149.25 1147.25,-206.75"/>
<text xml:space="preserve" text-anchor="middle" x="1107.38" y="-189.45" font-family="Times,serif" font-size="14.00">CVPR</text>
<text xml:space="preserve" text-anchor="middle" x="1107.38" y="-172.95" font-family="Times,serif" font-size="14.00">Abstracts</text>
<text xml:space="preserve" text-anchor="middle" x="1107.38" y="-156.45" font-family="Times,serif" font-size="14.00">Submission</text>
</a>
</g>
</g>
<!-- node_47 -->
<g id="node62" class="node class3">
<title>node_47</title>
<g id="a_node62"><a xlink:href="https://www.thecvf.com" xlink:title="Conference on Computer Vision and Pattern Recognition" target="_blank">
<polygon fill="#8888ff" stroke="black" points="1499.75,-198.5 1418.5,-198.5 1418.5,-157.5 1499.75,-157.5 1499.75,-198.5"/>
<text xml:space="preserve" text-anchor="middle" x="1459.12" y="-181.2" font-family="Times,serif" font-size="14.00">CVPR</text>
<text xml:space="preserve" text-anchor="middle" x="1459.12" y="-164.7" font-family="Times,serif" font-size="14.00">Notification</text>
</a>
</g>
</g>
<!-- node_41&#45;&gt;node_47 -->
<g id="edge43" class="edge">
<title>node_41&#45;&gt;node_47</title>
<path fill="none" stroke="black" d="M1147.48,-178C1210.97,-178 1336.45,-178 1406.96,-178"/>
<polygon fill="black" stroke="black" points="1406.69,-181.5 1416.69,-178 1406.69,-174.5 1406.69,-181.5"/>
</g>
<!-- order_node_12 -->
<!-- order_node_11&#45;&gt;order_node_12 -->
<!-- node_48 -->
<g id="node64" class="node class2">
<title>node_48</title>
<g id="a_node64"><a xlink:href="http://www.ifaamas.org/" xlink:title="International Conference on Autonomous Agents and Multiagent Systems" target="_blank">
<polygon fill="#88ff88" stroke="black" points="1614,-198.5 1535.75,-198.5 1535.75,-157.5 1614,-157.5 1614,-198.5"/>
<text xml:space="preserve" text-anchor="middle" x="1574.88" y="-181.2" font-family="Times,serif" font-size="14.00">AAMAS</text>
<text xml:space="preserve" text-anchor="middle" x="1574.88" y="-164.7" font-family="Times,serif" font-size="14.00">Conference</text>
</a>
</g>
</g>
<!-- node_42&#45;&gt;node_48 -->
<g id="edge41" class="edge">
<title>node_42&#45;&gt;node_48</title>
<path fill="none" stroke="black" d="M1265.67,-111.39C1321.08,-114.17 1423.83,-122.47 1507.75,-147 1513.53,-148.69 1519.44,-150.82 1525.24,-153.17"/>
<polygon fill="black" stroke="black" points="1523.53,-156.24 1534.1,-156.99 1526.3,-149.82 1523.53,-156.24"/>
</g>
<!-- order_node_13 -->
<!-- order_node_12&#45;&gt;order_node_13 -->
<!-- node_49 -->
<g id="node66" class="node class2">
<title>node_49</title>
<g id="a_node66"><a xlink:href="http://www.icaps-conference.org/" xlink:title="International Conference on Automated Planning and Scheduling" target="_blank">
<polygon fill="#88ff88" stroke="black" points="1728.25,-278.5 1650,-278.5 1650,-237.5 1728.25,-237.5 1728.25,-278.5"/>
<text xml:space="preserve" text-anchor="middle" x="1689.12" y="-261.2" font-family="Times,serif" font-size="14.00">ICAPS</text>
<text xml:space="preserve" text-anchor="middle" x="1689.12" y="-244.7" font-family="Times,serif" font-size="14.00">Conference</text>
</a>
</g>
</g>
<!-- node_44&#45;&gt;node_49 -->
<g id="edge39" class="edge">
<title>node_44&#45;&gt;node_49</title>
<path fill="none" stroke="black" d="M1382.82,-289.84C1446.08,-283.24 1569.19,-270.4 1638.19,-263.21"/>
<polygon fill="black" stroke="black" points="1638.51,-266.69 1648.09,-262.17 1637.78,-259.73 1638.51,-266.69"/>
</g>
<!-- order_node_14 -->
<!-- order_node_13&#45;&gt;order_node_14 -->
<!-- order_node_15 -->
<!-- order_node_14&#45;&gt;order_node_15 -->
</g>
</svg>
